<svg xmlns="http://www.w3.org/2000/svg" xmlns:xlink="http://www.w3.org/1999/xlink" version="1.1" width="256" height="256" viewBox="0 0 256 256" xml:space="preserve">

<defs>
</defs>
<g style="stroke: none; stroke-width: 0; stroke-dasharray: none; stroke-linecap: butt; stroke-linejoin: miter; stroke-miterlimit: 10; fill: none; fill-rule: nonzero; opacity: 1;" transform="translate(1.4065934065934016 1.4065934065934016) scale(2.81 2.81)" >
	<path d="M 55.232 11.869 h 13.27 c 2.115 0 3.83 1.715 3.83 3.83 V 86.17 c 0 2.115 -1.715 3.83 -3.83 3.83 H 13.201 c -2.115 0 -3.83 -1.715 -3.83 -3.83 V 15.699 c 0 -2.115 1.715 -3.83 3.83 -3.83 h 13.27" style="stroke: none; stroke-width: 1; stroke-dasharray: none; stroke-linecap: butt; stroke-linejoin: miter; stroke-miterlimit: 10; fill: rgb(46,160,218); fill-rule: nonzero; opacity: 1;" transform=" matrix(1 0 0 1 0 0) " stroke-linecap="round" />
	<path d="M 47.13 5.643 C 46.794 2.472 44.112 0 40.852 0 c -3.261 0 -5.943 2.472 -6.278 5.643 h -3.68 c -2.442 0 -4.422 1.98 -4.422 4.422 v 4.58 h 28.761 v -4.58 c 0 -2.442 -1.98 -4.422 -4.422 -4.422 H 47.13 z" style="stroke: none; stroke-width: 1; stroke-dasharray: none; stroke-linecap: butt; stroke-linejoin: miter; stroke-miterlimit: 10; fill: rgb(234,234,234); fill-rule: nonzero; opacity: 1;" transform=" matrix(1 0 0 1 0 0) " stroke-linecap="round" />
	<path d="M 20.149 36.184 c -0.028 0 -0.057 -0.001 -0.085 -0.004 c -0.311 -0.026 -0.591 -0.196 -0.758 -0.459 l -3.315 -5.209 c -0.296 -0.466 -0.159 -1.084 0.307 -1.381 c 0.466 -0.296 1.084 -0.159 1.381 0.307 l 2.613 4.105 l 6.79 -7.464 c 0.371 -0.407 1.005 -0.439 1.413 -0.067 c 0.409 0.372 0.438 1.004 0.067 1.413 l -7.67 8.432 C 20.699 36.066 20.43 36.184 20.149 36.184 z" style="stroke: none; stroke-width: 1; stroke-dasharray: none; stroke-linecap: butt; stroke-linejoin: miter; stroke-miterlimit: 10; fill: rgb(234,234,234); fill-rule: nonzero; opacity: 1;" transform=" matrix(1 0 0 1 0 0) " stroke-linecap="round" />
	<path d="M 20.149 57.657 c -0.028 0 -0.057 -0.001 -0.085 -0.004 c -0.311 -0.026 -0.591 -0.196 -0.758 -0.459 l -3.315 -5.209 c -0.296 -0.466 -0.159 -1.084 0.307 -1.381 c 0.466 -0.296 1.084 -0.158 1.381 0.307 l 2.613 4.105 l 6.79 -7.464 c 0.371 -0.408 1.005 -0.439 1.413 -0.066 c 0.409 0.371 0.438 1.004 0.067 1.412 l -7.67 8.432 C 20.699 57.539 20.43 57.657 20.149 57.657 z" style="stroke: none; stroke-width: 1; stroke-dasharray: none; stroke-linecap: butt; stroke-linejoin: miter; stroke-miterlimit: 10; fill: rgb(234,234,234); fill-rule: nonzero; opacity: 1;" transform=" matrix(1 0 0 1 0 0) " stroke-linecap="round" />
	<path d="M 20.149 80.177 c -0.028 0 -0.057 -0.001 -0.085 -0.004 c -0.311 -0.026 -0.591 -0.196 -0.758 -0.459 l -3.315 -5.209 c -0.296 -0.466 -0.159 -1.084 0.307 -1.381 c 0.466 -0.295 1.084 -0.158 1.381 0.307 l 2.613 4.105 l 6.79 -7.464 c 0.371 -0.407 1.005 -0.438 1.413 -0.066 c 0.409 0.371 0.438 1.004 0.067 1.412 l -7.67 8.432 C 20.699 80.059 20.43 80.177 20.149 80.177 z" style="stroke: none; stroke-width: 1; stroke-dasharray: none; stroke-linecap: butt; stroke-linejoin: miter; stroke-miterlimit: 10; fill: rgb(234,234,234); fill-rule: nonzero; opacity: 1;" transform=" matrix(1 0 0 1 0 0) " stroke-linecap="round" />
	<path d="M 60.684 32.354 H 35.819 c -0.552 0 -1 -0.448 -1 -1 s 0.448 -1 1 -1 h 24.864 c 0.553 0 1 0.448 1 1 S 61.236 32.354 60.684 32.354 z" style="stroke: none; stroke-width: 1; stroke-dasharray: none; stroke-linecap: butt; stroke-linejoin: miter; stroke-miterlimit: 10; fill: rgb(234,234,234); fill-rule: nonzero; opacity: 1;" transform=" matrix(1 0 0 1 0 0) " stroke-linecap="round" />
	<path d="M 42.897 53.827 h -7.078 c -0.552 0 -1 -0.447 -1 -1 s 0.448 -1 1 -1 h 7.078 c 0.552 0 1 0.447 1 1 S 43.449 53.827 42.897 53.827 z" style="stroke: none; stroke-width: 1; stroke-dasharray: none; stroke-linecap: butt; stroke-linejoin: miter; stroke-miterlimit: 10; fill: rgb(234,234,234); fill-rule: nonzero; opacity: 1;" transform=" matrix(1 0 0 1 0 0) " stroke-linecap="round" />
	<path d="M 60.684 76.347 H 35.819 c -0.552 0 -1 -0.447 -1 -1 s 0.448 -1 1 -1 h 24.864 c 0.553 0 1 0.447 1 1 S 61.236 76.347 60.684 76.347 z" style="stroke: none; stroke-width: 1; stroke-dasharray: none; stroke-linecap: butt; stroke-linejoin: miter; stroke-miterlimit: 10; fill: rgb(234,234,234); fill-rule: nonzero; opacity: 1;" transform=" matrix(1 0 0 1 0 0) " stroke-linecap="round" />
	<path d="M 78.179 48.617 c -0.932 0 -1.768 -0.536 -2.196 -1.364 c -0.085 -0.165 -0.175 -0.329 -0.269 -0.491 c -0.094 -0.163 -0.191 -0.322 -0.291 -0.478 c -0.503 -0.785 -0.549 -1.777 -0.083 -2.584 v 0 c 0.677 -1.172 0.275 -2.671 -0.897 -3.348 l -3.247 -1.874 c -1.172 -0.677 -2.671 -0.275 -3.348 0.897 l -0.001 0.001 c -0.459 0.795 -1.324 1.264 -2.241 1.219 c -0.398 -0.019 -0.799 -0.02 -1.199 0 c -0.915 0.044 -1.778 -0.426 -2.237 -1.219 l 0 -0.001 c -0.677 -1.172 -2.176 -1.574 -3.348 -0.897 l -3.247 1.874 c -1.172 0.677 -1.574 2.176 -0.897 3.348 l 0 0.001 c 0.458 0.794 0.434 1.776 -0.062 2.547 c -0.217 0.337 -0.417 0.684 -0.6 1.039 c -0.42 0.817 -1.258 1.331 -2.176 1.331 h -0.001 c -1.354 0 -2.451 1.097 -2.451 2.451 v 3.749 c 0 1.354 1.097 2.451 2.451 2.451 v 0 c 0.932 0 1.768 0.536 2.196 1.364 c 0.085 0.165 0.175 0.329 0.269 0.491 c 0.094 0.163 0.191 0.322 0.291 0.479 c 0.503 0.785 0.549 1.777 0.083 2.584 c -0.677 1.172 -0.275 2.671 0.897 3.348 l 3.247 1.874 c 1.172 0.677 2.671 0.275 3.348 -0.897 l 0.001 -0.001 c 0.459 -0.795 1.324 -1.264 2.241 -1.219 c 0.398 0.019 0.799 0.02 1.199 0 c 0.915 -0.044 1.778 0.426 2.237 1.219 l 0 0.001 c 0.677 1.172 2.176 1.574 3.348 0.897 l 3.247 -1.874 c 1.172 -0.677 1.574 -2.176 0.897 -3.348 l 0 -0.001 c -0.458 -0.794 -0.434 -1.776 0.062 -2.547 c 0.217 -0.337 0.417 -0.684 0.599 -1.039 c 0.42 -0.817 1.258 -1.331 2.176 -1.331 l 0.001 0 c 1.354 0 2.451 -1.097 2.451 -2.451 v -3.749 C 80.63 49.715 79.532 48.617 78.179 48.617 z M 67.982 58.093 c -2.844 1.642 -6.481 0.668 -8.123 -2.177 c -1.642 -2.844 -0.668 -6.481 2.177 -8.123 c 2.844 -1.642 6.481 -0.668 8.123 2.177 C 71.801 52.814 70.827 56.451 67.982 58.093 z" style="stroke: none; stroke-width: 1; stroke-dasharray: none; stroke-linecap: butt; stroke-linejoin: miter; stroke-miterlimit: 10; fill: rgb(255,191,77); fill-rule: nonzero; opacity: 1;" transform=" matrix(1 0 0 1 0 0) " stroke-linecap="round" />
</g>
</svg>