<svg viewBox="0 0 100.4 100.4" xmlns="http://www.w3.org/2000/svg" fill="currentColor">
  <g>
    <path d="M20.4,19.3L32,24.4c-2.3,3.4-3.5,7.3-3.5,11.4c0,11.2,9.1,20.4,20.4,20.4s20.4-9.1,20.4-20.4c0-4-1.2-8-3.4-11.3l10.2-4.8   l0,19.4L73,45.7c-0.2,0.5-0.2,1,0.1,1.4s0.8,0.7,1.3,0.7h5.9c0.5,0,1-0.2,1.2-0.7c0.3-0.4,0.3-0.9,0.1-1.4l-2.7-6.6V18.4   c0-0.8-0.1-1.4-1.5-2C77.1,16.3,49.6,4.1,49.6,4.1c-0.4-0.2-0.8-0.2-1.2,0l-28,12.4c-0.5,0.2-0.9,0.8-0.9,1.4S19.8,19,20.4,19.3z"/>
    <path d="M49.4,59.8C29.9,59.8,14,75.7,14,95.2c0,0.8,0.7,1.5,1.5,1.5h67.8c0.8,0,1.5-0.7,1.5-1.5C84.8,75.7,68.9,59.8,49.4,59.8z"/>
  </g>
</svg>
